<svg xmlns="http://www.w3.org/2000/svg" viewBox="0 0 24 24" width="32" height="32"><g><circle cx="12" cy="12" r="12" fill="#5865F2"/><path d="M17.472 7.766a13.227 13.227 0 00-3.285-.98.05.05 0 00-.052.025c-.141.25-.297.577-.406.833a12.19 12.19 0 00-3.658 0 8.258 8.258 0 00-.412-.833.051.051 0 00-.052-.025c-1.125.195-2.22.534-3.285.98a.047.047 0 00-.021.018C2.457 10.58 1.807 13.314 2.13 16.01a.052.052 0 00.019.037c1.375 1.01 2.7 1.624 3.993 2.03a.05.05 0 00.056-.019c.308-.42.582-.863.818-1.329a.05.05 0 00-.027-.068c-.434-.165-.846-.36-1.246-.588a.05.05 0 01-.007-.082c.084-.063.168-.129.248-.195a.05.05 0 01.051-.007c2.619 1.196 5.454 1.196 8.041 0a.05.05 0 01.052.006c.08.066.164.132.248.195a.05.05 0 01-.006.082 7.875 7.875 0 01-1.247.588.05.05 0 00-.026.069c.24.465.513.909.817 1.328a.05.05 0 00.056.02c1.293-.406 2.618-1.02 3.993-2.03a.05.05 0 00.019-.037c.334-2.822-.559-5.545-2.978-8.226a.049.049 0 00-.02-.018zM8.02 15.331c-.789 0-1.438-.724-1.438-1.612 0-.889.637-1.613 1.438-1.613.807 0 1.45.73 1.438 1.613 0 .888-.637 1.612-1.438 1.612zm7.974 0c-.788 0-1.438-.724-1.438-1.612 0-.889.637-1.613 1.438-1.613.807 0 1.45.73 1.438 1.613 0 .888-.631 1.612-1.438 1.612z" fill="#fff"/></g></svg> 